<svg width="707" height="136" viewBox="0 0 707 136" fill="none" xmlns="http://www.w3.org/2000/svg">
<path d="M52.6256 97.1428H37.8719V63.104C37.8719 55.2937 33.8059 52.6126 27.5326 52.6126C21.724 52.6126 17.1934 55.8766 14.7538 59.2571V97.1428H0V40.8389H14.7538V48.1829C18.3551 43.8697 25.2092 39.44 34.3867 39.44C46.7009 39.44 52.6256 46.4343 52.6256 57.392V97.1428Z" fill="#27272A"/>
<path d="M96.7826 98.5417C78.3113 98.5417 67.1589 85.0194 67.1589 68.9326C67.1589 52.9623 78.3113 39.44 96.7826 39.44C115.37 39.44 126.522 52.9623 126.522 68.9326C126.522 85.0194 115.37 98.5417 96.7826 98.5417ZM96.7826 85.3691C105.96 85.3691 111.188 77.792 111.188 68.9326C111.188 60.1897 105.96 52.6126 96.7826 52.6126C87.605 52.6126 82.4935 60.1897 82.4935 68.9326C82.4935 77.792 87.605 85.3691 96.7826 85.3691Z" fill="#27272A"/>
<path d="M159.773 98.5417C149.434 98.5417 143.857 93.1794 143.857 83.1543V53.7783H134.564V40.8389H143.857V25.4514H158.727V40.8389H170.112V53.7783H158.727V79.1908C158.727 82.688 160.586 85.3691 163.839 85.3691C166.046 85.3691 168.137 84.5531 168.95 83.7371L172.087 94.928C169.88 96.9097 165.93 98.5417 159.773 98.5417Z" fill="#27272A"/>
<path d="M181.717 119.175L183.924 105.886C185.202 106.469 187.177 106.818 188.571 106.818C192.404 106.818 194.96 105.769 196.354 102.738L198.445 97.9588L175.676 40.8389H191.475L206.113 80.0069L220.75 40.8389H236.666L210.295 106.352C206.113 116.96 198.678 119.758 189.035 119.991C187.293 119.991 183.575 119.641 181.717 119.175Z" fill="#27272A"/>
<path d="M278.299 97.1428H261.686V33.9611H239.033V19.3897H300.836V33.9611H278.299V97.1428Z" fill="#27272A"/>
<path d="M353.915 97.1428H339.161V91.3143C335.328 95.8606 328.706 98.5417 321.387 98.5417C312.442 98.5417 301.87 92.48 301.87 79.8903C301.87 66.7177 312.442 61.7051 321.387 61.7051C328.822 61.7051 335.444 64.1531 339.161 68.5829V61.0057C339.161 55.2937 334.282 51.5634 326.847 51.5634C320.806 51.5634 315.23 53.7783 310.467 58.208L304.891 48.2994C311.745 42.2377 320.574 39.44 329.403 39.44C342.182 39.44 353.915 44.5691 353.915 60.7726V97.1428ZM327.312 88.5166C332.075 88.5166 336.722 86.8846 339.161 83.6206V76.6263C336.722 73.3623 332.075 71.7303 327.312 71.7303C321.503 71.7303 316.74 74.7611 316.74 80.24C316.74 85.4857 321.503 88.5166 327.312 88.5166Z" fill="#27272A"/>
<path d="M386.788 97.1428H372.034V19.3897H386.788V97.1428Z" fill="#27272A"/>
<path d="M459.736 97.1428H441.264L426.394 75.4606L419.656 82.688V97.1428H404.903V19.3897H419.656V65.9017L440.916 40.8389H459.039L436.85 66.368L459.736 97.1428Z" fill="#27272A"/>
<path d="M477.876 34.7771C473.113 34.7771 469.047 30.8137 469.047 25.9177C469.047 21.0217 473.113 17.1748 477.876 17.1748C482.756 17.1748 486.705 21.0217 486.705 25.9177C486.705 30.8137 482.756 34.7771 477.876 34.7771ZM485.311 97.1428H470.558V40.8389H485.311V97.1428Z" fill="#27272A"/>
<path d="M529.797 98.5417C512.72 98.5417 499.825 87.0011 499.825 68.9326C499.825 52.6126 511.79 39.44 528.868 39.44C545.596 39.44 556.981 52.0297 556.981 70.448V73.712H515.275C516.205 80.8228 521.897 86.768 531.423 86.768C536.186 86.768 542.808 84.6697 546.409 81.1726L552.915 90.7314C547.339 95.8606 538.51 98.5417 529.797 98.5417ZM542.692 63.6868C542.343 58.3246 538.626 51.2137 528.868 51.2137C519.69 51.2137 515.74 58.0914 515.043 63.6868H542.692Z" fill="#27272A"/>
<path d="M588.734 50.8365C588.734 48.399 590.703 46.4231 593.133 46.4231C595.562 46.4231 597.531 48.399 597.531 50.8365V85.1635C597.531 87.6009 595.562 89.5769 593.133 89.5769C590.703 89.5769 588.734 87.6009 588.734 85.1635V50.8365Z" fill="#27272A"/>
<path d="M602.418 39.3942C602.418 36.9567 604.387 34.9808 606.816 34.9808C609.245 34.9808 611.215 36.9567 611.215 39.3942V96.6058C611.215 99.0433 609.245 101.019 606.816 101.019C604.387 101.019 602.418 99.0433 602.418 96.6058V39.3942Z" fill="#27272A"/>
<path d="M616.102 25.6635C616.102 23.226 618.071 21.25 620.5 21.25C622.929 21.25 624.898 23.226 624.898 25.6635V110.337C624.898 112.774 622.929 114.75 620.5 114.75C618.071 114.75 616.102 112.774 616.102 110.337V25.6635Z" fill="#27272A"/>
<path d="M629.785 31.2212C629.785 28.7837 631.754 26.8077 634.183 26.8077C636.613 26.8077 638.582 28.7837 638.582 31.2212V104.779C638.582 107.216 636.613 109.192 634.183 109.192C631.754 109.192 629.785 107.216 629.785 104.779V31.2212Z" fill="#27272A"/>
<path d="M643.469 11.6058C643.469 9.16828 645.438 7.19231 647.867 7.19231C650.296 7.19231 652.265 9.16828 652.265 11.6058V124.394C652.265 126.832 650.296 128.808 647.867 128.808C645.438 128.808 643.469 126.832 643.469 124.394V11.6058Z" fill="#27272A"/>
<path d="M657.152 4.41346C657.152 1.97597 659.122 0 661.551 0C663.98 0 665.949 1.97597 665.949 4.41346V131.587C665.949 134.024 663.98 136 661.551 136C659.122 136 657.152 134.024 657.152 131.587V4.41346Z" fill="#27272A"/>
<path d="M670.836 25.6635C670.836 23.226 672.805 21.25 675.234 21.25C677.664 21.25 679.633 23.226 679.633 25.6635V110.337C679.633 112.774 677.664 114.75 675.234 114.75C672.805 114.75 670.836 112.774 670.836 110.337V25.6635Z" fill="#27272A"/>
<path d="M684.52 35.7981C684.52 33.3606 686.489 31.3846 688.918 31.3846C691.347 31.3846 693.316 33.3606 693.316 35.7981V100.202C693.316 102.639 691.347 104.615 688.918 104.615C686.489 104.615 684.52 102.639 684.52 100.202V35.7981Z" fill="#27272A"/>
<path d="M698.203 50.8365C698.203 48.399 700.173 46.4231 702.602 46.4231C705.031 46.4231 707 48.399 707 50.8365V85.1635C707 87.6009 705.031 89.5769 702.602 89.5769C700.173 89.5769 698.203 87.6009 698.203 85.1635V50.8365Z" fill="#27272A"/>
</svg>
