<svg width="552" height="80" viewBox="0 0 552 80" fill="none" xmlns="http://www.w3.org/2000/svg">
<path d="M34.336 24.389C46.4546 24.389 54.2307 32.4632 54.2307 45.1801V79.2935H38.6785V49.7218C38.6785 42.8587 34.639 38.6198 27.9738 38.6198C20.1977 38.7207 15.5522 44.5745 15.5522 52.5478V79.2935H0V24.9946H15.5522V34.4818C19.3897 27.7196 25.853 24.49 34.336 24.389Z" fill="black"/>
<path d="M92.1944 24.49C109.564 24.49 121.279 35.4911 121.279 52.1441C121.279 68.6961 109.564 79.8991 92.1944 79.8991C74.7234 79.8991 63.0088 68.6961 63.0088 52.1441C63.0088 35.4911 74.7234 24.49 92.1944 24.49ZM92.1944 37.4087C84.1153 37.4087 78.662 43.4643 78.662 52.3459C78.662 61.2275 84.1153 67.2832 92.1944 67.2832C100.172 67.2832 105.727 61.2275 105.727 52.3459C105.727 43.4643 100.172 37.4087 92.1944 37.4087Z" fill="black"/>
<path d="M161.958 64.8609L165.19 76.2657C161.15 78.587 156.101 80 151.052 80C141.357 80 133.985 74.449 133.985 63.2461V38.1152H126.41V27.4169H133.985V12.4796H149.436V27.4169H164.18V38.2161H149.436V60.622C149.436 65.1637 151.355 66.9804 154.687 66.8795C156.707 66.8795 159.131 66.173 161.958 64.8609Z" fill="black"/>
<path d="M182.336 0C188.241 -2.21953e-06 190.112 5.76728 190.112 10.8136C190.112 15.86 184.77 18.0227 179.822 18.0227C174.874 18.0227 172.609 12.2555 172.609 7.2091C172.609 2.16273 177.387 0 182.336 0ZM190.112 79.2935H174.56V24.9946H190.112V79.2935Z" fill="black"/>
<path d="M228.362 24.49C247.449 24.49 256.336 37.1059 255.023 56.8876H216.042C217.859 63.7507 223.111 67.7878 230.079 67.7878C235.229 67.7878 240.077 65.7693 243.813 62.0349L251.993 70.311C246.54 76.3666 238.562 79.8991 228.766 79.8991C211.396 79.8991 200.388 68.7971 200.388 52.3459C200.388 35.592 211.8 24.49 228.362 24.49ZM215.739 47.7033H240.481C240.279 40.5374 235.633 35.8948 228.463 35.8948C221.596 35.8948 216.95 40.5374 215.739 47.7033Z" fill="black"/>
<path d="M310.998 22.1686H289.387V79.2935H273.43V22.1686H251.92V8.64438H310.998V22.1686Z" fill="black"/>
<path d="M348.576 79.2935V72.9351C344.94 77.4768 339.083 80 331.509 80C319.895 80 312.826 72.9351 312.826 63.0442C312.826 52.8505 320.198 46.7949 333.529 46.694H348.475V45.6847C348.475 39.9319 344.637 36.6013 337.164 36.6013C332.317 36.6013 326.662 38.2161 321.006 41.3448L316.159 30.6465C324.238 26.6094 331.206 24.389 340.699 24.389C355.241 24.389 363.623 31.6558 363.724 43.868L363.825 79.2935H348.576ZM335.851 68.898C342.416 68.898 347.566 65.3655 348.475 60.7229V55.8784H336.255C330.297 55.8784 327.368 57.6951 327.368 62.0349C327.368 66.173 330.6 68.898 335.851 68.898Z" fill="black"/>
<path d="M393.284 79.2935H377.732V4.40543H393.284V79.2935Z" fill="black"/>
<path d="M431.909 57.1904L424.941 64.5581V79.2935H409.389V4.40543H424.941V45.5838L444.836 25.0955H462.509L442.614 45.9875L463.418 79.2935H445.038L431.909 57.1904Z" fill="black"/>
<path d="M479.186 0.872979C484.135 0.872979 487.568 4.50636 487.568 9.55273C487.568 14.5991 484.135 21.6273 479.186 21.6273C474.238 21.6273 471.967 17.9939 471.967 12.9475C471.967 7.90116 474.238 0.872979 479.186 0.872979ZM486.962 79.2935H471.41V24.9946H486.962V79.2935Z" fill="black"/>
<path d="M525.212 24.49C544.299 24.49 553.186 37.1059 551.873 56.8876H512.892C514.71 63.7507 519.961 67.7878 526.929 67.7878C532.08 67.7878 536.927 65.7693 540.664 62.0349L548.844 70.311C543.39 76.3666 535.412 79.8991 525.616 79.8991C508.246 79.8991 497.239 68.7971 497.239 52.3459C497.239 35.592 508.65 24.49 525.212 24.49ZM512.589 47.7033H537.331C537.129 40.5374 532.484 35.8948 525.313 35.8948C518.446 35.8948 513.801 40.5374 512.589 47.7033Z" fill="black"/>
</svg>
